<svg xmlns="http://www.w3.org/2000/svg" viewBox="0 0 1382 292"><defs><style>.cls-1{fill:#e7e10e;}</style></defs><g id="Capa_2" data-name="Capa 2"><g id="Capa_1-2" data-name="Capa 1"><rect class="cls-1" width="1382" height="292"/><path d="M526.38,235.72c2.26-1.26,4,0,5.77.58,25,7.9,57.75-6.23,69.44-29.79,1.49-3,0-4.64-1.27-6.71-22.94-38-3.38-87.28,39.29-98.93a65.54,65.54,0,0,1,42.57,2.4c1.39.55,2.78,1.08,4.18,1.6.13,0,.32,0,1-.15.42-12.84,1.53-25.68,8.87-37S714,49,726.16,42.8c-.27,4.42-2.83,8.19-1.31,12.73,3.41-1.77,6.46-4.11,10.54-5.26-.19,4.11-1.62,7.73-1.14,11.51.21,1.72-.88,1.93-2.21,1.5-1.5-.48-2.94-1.3-4.92-.52a21.72,21.72,0,0,0,7.25,5.5c7.6,3.92,11.42,10.18,12.76,18.51.69,4.25.06,9.52,6.21,11.21,1.8.5.92,2.69.11,4.32-5.13,10.38-13.85,14.94-24.9,13.75-12.27-1.32-15.28,3.37-12,15.51,2.26,8.49,6.06,16.5,7.09,25.39a66,66,0,0,1-6.68,38.25c-2.81,5.54-1.7,10.58.36,15.78.91,2.28,2.75,3.05,5.09,3.37,4.56.61,8.71,2.27,11.82,5.83,2.35,2.69,3.24,5.71,1.82,9.24s-4.43,2.84-7.18,2.87c-2.17,0-4.4-.33-6.49.05-10.26,1.89-15.65-4-20-12-.68-1.23-.47-4.2-3.19-3.11-2.42,1-3.1,2.56-1.85,5.48,2.79,6.49.68,9.27-6.28,9.24q-16.74-.07-33.48-.1a63.47,63.47,0,0,1-34.62-9.76c-2.72-1.73-3.73-.92-5.53,1.06-14.77,16.27-32.41,26.95-55.05,27.36C548.31,250.79,536.56,245.35,526.38,235.72Zm143.69-108.4a12.68,12.68,0,1,0-25.35.15,12.68,12.68,0,1,0,25.35-.15Zm32.62,57A12.7,12.7,0,1,0,689.9,197,12.88,12.88,0,0,0,702.69,184.34Zm-90.59-.06a12.65,12.65,0,1,0,12.61-12.79A12.8,12.8,0,0,0,612.1,184.28Zm58,18.77a12.8,12.8,0,0,0-12.52-12.87,12.67,12.67,0,1,0,12.52,12.87Zm-45.43-69.69a12.67,12.67,0,0,0,.2,25.34,12.67,12.67,0,1,0-.2-25.34Zm65.55,0a12.67,12.67,0,1,0,12.48,12.85A12.68,12.68,0,0,0,690.19,133.37ZM665,165.08a7.81,7.81,0,0,0-7.7-7.58,7.68,7.68,0,0,0-7.48,7.72,7.51,7.51,0,0,0,7.62,7.54A7.72,7.72,0,0,0,665,165.08Zm75.48-73c-2-1.61-3.85-2.6-3.53-5.06.39-2.93,3.22-2.8,5.42-3.94-3-2.17-5.59-2.42-8.07-.2-1.91,1.72-2.62,3.93-1.43,6.32C734.26,92,736.52,93.32,740.46,92Z"/><path d="M1299.07,140.06c-13.36,32.68-27.36,65.11-39.74,98.15-4.47,11.92-11.9,12.18-22,12.33-10.41.15-17.35-1.06-21.73-12.74a1002.49,1002.49,0,0,0-42.52-97.54v109h-43.91V48.38c12,0,24-1.26,35.62.52,6.09.93,14.2,5.92,16.55,11.22,18.66,42.15,36.16,84.83,55.43,130.72,3.58-6.74,6.17-10.84,8-15.25,15.4-36.43,31.61-72.56,45.49-109.57,5.48-14.62,13-19.45,27.58-17.82,8.81,1,17.82.18,28.13.18V249.29h-42.84v-109Z"/><path d="M412.36,249.78q-12.86.38-26.67.21-12.21-.15-23.69-.75a152.64,152.64,0,0,0-4.82-19.45c-1.31-4.13-2.73-8-4.18-11.55q-6.6-.66-13.41-1.16a450.08,450.08,0,0,0-67.06.25c-4.1,10.59-8,20.59-12.17,31.46H212.81c16.94-45,33.33-88.59,49.73-132.15,5.7-15.13,12.68-29.91,16.8-45.45,4.94-18.6,14.71-24.79,34.21-24,16.53.63,24.85,4.31,30.75,20.94C365.66,128.34,389,187.89,412.36,249.78ZM287.28,176.14h50.11c-8.1-23.38-15.75-45.45-25-72Z"/><path d="M177.88,183.09l30,21.49C188.87,242,146,258.37,99,247,53.16,235.9,23,195.84,23,146S53.18,56.08,98.94,45c47.22-11.39,89.62,4.75,109,42.29L178,108.83C162.35,90.42,142.76,80,119.44,85.2,106.77,88,93,94.76,84.14,104c-22.29,23.34-19.38,67,3.13,88.46C106.13,210.47,148.22,218.77,177.88,183.09Z"/><path d="M826.09,169.46v81.09h-43.3V50.42H895.61v38.7H827.49v43h63.36v37.37Z"/><path d="M436.38,90.4H391.53V51H526.32V89.29h-45V250.55H436.38Z"/><path d="M988.45,50.39h43V211H1106v39.53H988.45Z"/><path d="M919.49,250.55V51.07H962V250.55Z"/></g></g></svg>